# xmcd
#
# Track frame offsets:
#	150
#	26395
#	46977
#	68582
#	92197
#	115095
#	130030
#	152662
#	170327
#	193385
#
# Disc length: 2916 seconds
#
# Revision: 262014174
# Processed by: cddbd v1.5.2PL0 Copyright (c) Steve Scherf et al.
# Submitted via: EZCDAudioConverter 8.0.2.1
#
DISCID=7c0b620a
DTITLE=Thiên Trang - Cho Người Tình Nhỏ
DYEAR=1992
DGENRE=
TTITLE0=Tâm hồn hoang lạnh
TTITLE1=Cho Người Tình Nhỏ
TTITLE2=Chiều trên đồi vắng
TTITLE3=Niềm đau dĩ vãng
TTITLE4=Tìm mãi thương đau
TTITLE5=Trương đời hoa
TTITLE6=Mưa đêm thương nhớ
TTITLE7=Người qua phố
TTITLE8=Ngày buồn
TTITLE9=Em chờ anh trở lại
EXTD=
EXTT0=
EXTT1=
EXTT2=
EXTT3=
EXTT4=
EXTT5=
EXTT6=
EXTT7=
EXTT8=
EXTT9=
PLAYORDER=
